<?xml version="1.0" encoding="UTF-8"?>
<svg xmlns="http://www.w3.org/2000/svg" xmlns:xlink="http://www.w3.org/1999/xlink" width="375pt" height="374.999991pt" viewBox="0 0 375 374.999991" version="1.2">
<defs>
<clipPath id="clip1">
  <path d="M 147 25.273438 L 203 25.273438 L 203 80 L 147 80 Z M 147 25.273438 "/>
</clipPath>
<clipPath id="clip2">
  <path d="M 290 167.117188 L 331 167.117188 L 331 209 L 290 209 Z M 290 167.117188 "/>
</clipPath>
<clipPath id="clip3">
  <path d="M 32.574219 181 L 47 181 L 47 195 L 32.574219 195 Z M 32.574219 181 "/>
</clipPath>
</defs>
<g id="surface1">
<g clip-path="url(#clip1)" clip-rule="nonzero">
<path style=" stroke:none;fill-rule:nonzero;fill:rgb(97.24884%,84.309387%,1.568604%);fill-opacity:1;" d="M 174.988281 25.570312 C 189.972656 25.570312 202.128906 37.707031 202.128906 52.664062 C 202.128906 67.59375 189.972656 79.730469 174.988281 79.730469 C 160.003906 79.730469 147.875 67.59375 147.875 52.664062 C 147.875 37.707031 160.003906 25.570312 174.988281 25.570312 "/>
</g>
<path style=" stroke:none;fill-rule:nonzero;fill:rgb(97.24884%,84.309387%,1.568604%);fill-opacity:1;" d="M 242.816406 45.890625 C 256.554688 45.890625 267.6875 57.003906 267.6875 70.714844 C 267.6875 84.402344 256.554688 95.515625 242.816406 95.515625 C 229.078125 95.515625 217.945312 84.402344 217.945312 70.714844 C 217.945312 57.003906 229.078125 45.890625 242.816406 45.890625 "/>
<path style=" stroke:none;fill-rule:nonzero;fill:rgb(97.24884%,84.309387%,1.568604%);fill-opacity:1;" d="M 292.558594 97.78125 C 305.050781 97.78125 315.160156 107.871094 315.160156 120.339844 C 315.160156 132.808594 305.050781 142.902344 292.558594 142.902344 C 280.066406 142.902344 269.929688 132.808594 269.929688 120.339844 C 269.929688 107.871094 280.066406 97.78125 292.558594 97.78125 "/>
<g clip-path="url(#clip2)" clip-rule="nonzero">
<path style=" stroke:none;fill-rule:nonzero;fill:rgb(97.24884%,84.309387%,1.568604%);fill-opacity:1;" d="M 310.644531 167.726562 C 321.863281 167.726562 330.972656 176.824219 330.972656 188.046875 C 330.972656 199.242188 321.863281 208.367188 310.644531 208.367188 C 299.398438 208.367188 290.289062 199.242188 290.289062 188.046875 C 290.289062 176.824219 299.398438 167.726562 310.644531 167.726562 "/>
</g>
<path style=" stroke:none;fill-rule:nonzero;fill:rgb(97.24884%,84.309387%,1.568604%);fill-opacity:1;" d="M 292.558594 237.671875 C 302.53125 237.671875 310.644531 245.773438 310.644531 255.753906 C 310.644531 265.703125 302.53125 273.804688 292.558594 273.804688 C 282.5625 273.804688 274.472656 265.703125 274.472656 255.753906 C 274.472656 245.773438 282.5625 237.671875 292.558594 237.671875 "/>
<path style=" stroke:none;fill-rule:nonzero;fill:rgb(97.24884%,84.309387%,1.568604%);fill-opacity:1;" d="M 242.816406 289.589844 C 251.570312 289.589844 258.632812 296.667969 258.632812 305.378906 C 258.632812 314.113281 251.570312 321.191406 242.816406 321.191406 C 234.0625 321.191406 227 314.113281 227 305.378906 C 227 296.667969 234.0625 289.589844 242.816406 289.589844 "/>
<path style=" stroke:none;fill-rule:nonzero;fill:rgb(97.24884%,84.309387%,1.568604%);fill-opacity:1;" d="M 174.988281 309.910156 C 182.492188 309.910156 188.558594 315.964844 188.558594 323.429688 C 188.558594 330.921875 182.492188 336.976562 174.988281 336.976562 C 167.511719 336.976562 161.417969 330.921875 161.417969 323.429688 C 161.417969 315.964844 167.511719 309.910156 174.988281 309.910156 "/>
<path style=" stroke:none;fill-rule:nonzero;fill:rgb(97.24884%,84.309387%,1.568604%);fill-opacity:1;" d="M 107.1875 294.097656 C 113.417969 294.097656 118.488281 299.15625 118.488281 305.378906 C 118.488281 311.625 113.417969 316.683594 107.1875 316.683594 C 100.929688 316.683594 95.859375 311.625 95.859375 305.378906 C 95.859375 299.15625 100.929688 294.097656 107.1875 294.097656 "/>
<path style=" stroke:none;fill-rule:nonzero;fill:rgb(97.24884%,84.309387%,1.568604%);fill-opacity:1;" d="M 57.445312 246.710938 C 62.429688 246.710938 66.472656 250.75 66.472656 255.753906 C 66.472656 260.726562 62.429688 264.765625 57.445312 264.765625 C 52.433594 264.765625 48.386719 260.726562 48.386719 255.753906 C 48.386719 250.75 52.433594 246.710938 57.445312 246.710938 "/>
<g clip-path="url(#clip3)" clip-rule="nonzero">
<path style=" stroke:none;fill-rule:nonzero;fill:rgb(97.24884%,84.309387%,1.568604%);fill-opacity:1;" d="M 39.359375 181.273438 C 43.097656 181.273438 46.144531 184.316406 46.144531 188.046875 C 46.144531 191.777344 43.097656 194.820312 39.359375 194.820312 C 35.621094 194.820312 32.574219 191.777344 32.574219 188.046875 C 32.574219 184.316406 35.621094 181.273438 39.359375 181.273438 "/>
</g>
<path style=" stroke:none;fill-rule:nonzero;fill:rgb(97.24884%,84.309387%,1.568604%);fill-opacity:1;" d="M 57.445312 115.835938 C 59.9375 115.835938 61.960938 117.851562 61.960938 120.339844 C 61.960938 122.828125 59.9375 124.847656 57.445312 124.847656 C 54.953125 124.847656 52.929688 122.828125 52.929688 120.339844 C 52.929688 117.851562 54.953125 115.835938 57.445312 115.835938 "/>
</g>
</svg>
